<svg version="1.1" xmlns="http://www.w3.org/2000/svg" xmlns:xlink="http://www.w3.org/1999/xlink" x="0px" y="0px" width="512px" height="512px"
	 viewBox="0 0 512 512" xml:space="preserve">
<switch>
	<g>
		<path fill="#1A171B" d="M256,0C114.614,0,0,114.619,0,256c0,141.383,114.614,256,256,256c141.385,0,256-114.617,256-256
			C512,114.619,397.385,0,256,0z M256,496C123.451,496,16,388.547,16,256C16,123.455,123.451,16,256,16s240,107.455,240,240
			C496,388.547,388.549,496,256,496z"/>
		<g>
			<path fill="#1A171B" d="M256.451,88.009c-92.636,0-168,75.358-168,167.984c0,92.644,75.364,168.016,168,168.016
				s168-75.372,168-168.016C424.451,163.367,349.087,88.009,256.451,88.009z M256.451,408.009c-83.812,0-152-68.194-152-152.016
				c0-83.804,68.188-151.984,152-151.984s152,68.181,152,151.984C408.451,339.814,340.264,408.009,256.451,408.009z"/>
			<circle fill="#1A171B" cx="306.451" cy="206.009" r="16"/>
			<circle fill="#1A171B" cx="206.451" cy="206.009" r="16"/>
			<path fill="#1A171B" d="M302.658,289.29c-13.789-9.091-29.767-13.896-46.207-13.896c-16.439,0-32.418,4.805-46.206,13.896
				c-13.371,8.815-24.101,21.237-31.028,35.921c-1.887,3.995-0.176,8.762,3.82,10.648c1.104,0.52,2.264,0.767,3.408,0.767
				c3,0,5.876-1.695,7.24-4.589c11.829-25.068,35.879-40.643,62.766-40.643s50.938,15.574,62.766,40.643
				c1.885,3.996,6.653,5.707,10.648,3.822s5.707-6.652,3.82-10.648C326.759,310.527,316.029,298.105,302.658,289.29z"/>
		</g>
	</g>
</switch>
</svg>
